<svg width="720" height="720" viewBox="0 0 720 720" fill="none" xmlns="http://www.w3.org/2000/svg">
  <rect width="720" height="720" rx="48" fill="#FFFDF9"/>
  <circle cx="360" cy="360" r="270" fill="#FFFFFF" stroke="#F3D8CA" stroke-width="12"/>
  <path d="M360 360 L360 90 A270 270 0 0 1 550.919 169.081 Z" fill="#FFE1D6"/>
  <path d="M360 360 L550.919 169.081 A270 270 0 0 1 630 360 Z" fill="#FFECCA"/>
  <path d="M360 360 L630 360 A270 270 0 0 1 550.919 550.919 Z" fill="#E2F6D8"/>
  <path d="M360 360 L550.919 550.919 A270 270 0 0 1 360 630 Z" fill="#DFF7EE"/>
  <path d="M360 360 L360 630 A270 270 0 0 1 169.081 550.919 Z" fill="#E9F0FF"/>
  <path d="M360 360 L169.081 550.919 A270 270 0 0 1 90 360 Z" fill="#F0E8FF"/>
  <path d="M360 360 L90 360 A270 270 0 0 1 169.081 169.081 Z" fill="#FFE4F1"/>
  <path d="M360 360 L169.081 169.081 A270 270 0 0 1 360 90 Z" fill="#FFF0DA"/>
  <circle cx="360" cy="360" r="108" fill="#FFF9F4" stroke="#F1D9C9" stroke-width="8"/>
  <line x1="360" y1="100" x2="360" y2="620" stroke="#E9BDAA" stroke-width="6"/>
  <line x1="100" y1="360" x2="620" y2="360" stroke="#E9BDAA" stroke-width="6"/>
  <line x1="176.152" y1="176.152" x2="543.848" y2="543.848" stroke="#E9BDAA" stroke-width="6"/>
  <line x1="543.848" y1="176.152" x2="176.152" y2="543.848" stroke="#E9BDAA" stroke-width="6"/>
  <text x="360" y="148" text-anchor="middle" fill="#9A5138" font-size="34" font-family="Microsoft YaHei, sans-serif" font-weight="700">愿望</text>
  <text x="522" y="214" text-anchor="middle" fill="#A5643C" font-size="32" font-family="Microsoft YaHei, sans-serif" font-weight="700">温暖</text>
  <text x="578" y="372" text-anchor="middle" fill="#547B31" font-size="32" font-family="Microsoft YaHei, sans-serif" font-weight="700">希望</text>
  <text x="518" y="530" text-anchor="middle" fill="#2F7A5B" font-size="32" font-family="Microsoft YaHei, sans-serif" font-weight="700">恐惧</text>
  <text x="360" y="592" text-anchor="middle" fill="#4867A8" font-size="34" font-family="Microsoft YaHei, sans-serif" font-weight="700">杂乱</text>
  <text x="204" y="530" text-anchor="middle" fill="#7859AB" font-size="32" font-family="Microsoft YaHei, sans-serif" font-weight="700">激动</text>
  <text x="148" y="372" text-anchor="middle" fill="#A75077" font-size="32" font-family="Microsoft YaHei, sans-serif" font-weight="700">注视</text>
  <text x="204" y="214" text-anchor="middle" fill="#AE7644" font-size="32" font-family="Microsoft YaHei, sans-serif" font-weight="700">期待</text>
  <text x="360" y="354" text-anchor="middle" fill="#B68773" font-size="22" font-family="Microsoft YaHei, sans-serif" font-weight="700">中心区域可自由表达</text>
  <text x="360" y="388" text-anchor="middle" fill="#C79A83" font-size="18" font-family="Microsoft YaHei, sans-serif">系统不会把它当作独立分区</text>
</svg>
